<svg width="100" height="95" viewBox="0 0 100 95" fill="none" xmlns="http://www.w3.org/2000/svg">
<g clip-path="url(#clip0_4083_4587)">
<path d="M42.0713 56.6447L42.4324 59.5336L56.0042 56.9306L56.2449 53.8009L42.0713 56.6447Z" fill="#00CE67"/>
<path d="M42.4922 61.6852L42.8232 64.3935L55.6126 61.9259L55.8533 58.7963L42.4922 61.6852Z" fill="#00CE67"/>
<path d="M45.0352 66.4398L45.321 68.7419L53.1903 67.4479L53.431 64.0926L45.0352 66.4398Z" fill="#00CE67"/>
<path d="M45.1104 49.5128C44.5838 47.7222 44.2377 45.7963 44.1474 45.1945C44.1023 44.9387 43.2146 38.7246 44.644 31.1412C45.0653 28.9595 45.622 26.8831 46.3442 24.9271C44.328 19.8866 41.6949 15.5382 39.3326 13.4317C38.3245 12.529 37.4217 12.1077 36.9102 12.2732C36.6544 12.3634 35.7967 12.86 35.225 15.7639C32.7423 28.5533 35.8268 40.6505 44.9148 53.7859L47.0815 53.3646C46.1335 52.5672 45.5618 51.0174 45.1104 49.5128Z" fill="#009FFF"/>
<path d="M66.5662 18.4722C66.491 21.8877 65.8891 26.1308 64.8208 30.75C63.0755 38.3183 60.3822 45.706 57.5986 50.7766L75.3833 36.2118L73.1715 14.9815L64.55 10.1065C65.9944 11.6262 66.6565 14.3646 66.5662 18.4722Z" fill="#FF6800"/>
<path d="M49.4283 46.8044C50.4214 42.1852 49.9399 36.2419 48.0741 29.8924C46.1934 37.7315 47.1714 44.6227 47.1864 44.7431C47.4422 46.4884 48.014 48.7454 48.5255 50.0394C48.7663 49.4225 49.0822 48.4144 49.4283 46.8044Z" fill="#00CE67"/>
<path d="M33.1632 36.8438C31.1019 29.6516 30.7859 22.5648 32.2153 15.1921C32.5463 13.4618 33.0579 12.1076 33.75 11.1146L24.8125 17.3137L26.5278 45.1042L40.1597 52.1459C36.9248 46.9399 34.6227 41.8993 33.1632 36.8438Z" fill="#D218E9"/>
<path d="M50.6323 52.6574L53.13 52.1609C56.3499 47.7071 59.7654 39.0706 61.8418 30.0579C64.2041 19.7963 63.7828 13.6875 62.3083 12.1979C61.5409 11.4155 59.946 12.2882 58.7423 13.1458C54.2284 16.3657 51.3997 20.6088 49.6543 24.9271C52.3626 32.1192 53.9124 40.5752 52.4379 47.4363C51.9413 49.7083 51.3997 51.5289 50.6323 52.6574Z" fill="#FFE000"/>
<path d="M41.3785 11.1447C43.6054 13.1308 45.9978 16.7269 48.029 21.0903C50.2107 16.8322 53.22 13.2963 56.9515 10.6331C58.5012 9.51968 60.5174 8.51158 62.3681 8.87269L48.36 0.958344L36.4434 9.23381C37.6019 9.02316 39.2871 9.27894 41.3785 11.1447Z" fill="#00CE67"/>
<path d="M24.3162 74.0533C21.2769 74.0533 19.5165 75.4676 18.3278 77.2581C17.1542 75.4375 16.116 74.0533 13.0165 74.0533C9.9771 74.0533 8.50257 75.3021 7.41923 77.2581V74.3542H2.34863V90.0023H7.5396L8.06623 79.5151L13.2873 78.9583L13.1067 90.0023H18.6739V79.5151L24.1959 79.2292L24.7977 90.0023H30.3197L30.0338 80.809C29.9285 76.0695 28.5292 74.0533 24.3162 74.0533Z" fill="#100F5D"/>
<path d="M45.3206 74.3692V77.2882C44.3577 75.4225 42.1158 74.0533 39.3172 74.0533C34.3368 74.0533 32.0498 77.3033 32.0498 82.2234C32.0498 87.0232 34.2616 90.3033 39.4827 90.3033C42.0706 90.3033 44.4028 88.6632 45.3206 87.1285V90.0023H50.7072V74.3542H45.3206V74.3692ZM45.2905 85.1574L37.7072 85.4433L37.7223 79.0637L45.2905 79.5151V85.1574Z" fill="#100F5D"/>
<path d="M71.5462 74.3692H65.302L63.2105 77.544L62.2626 79.169L61.2846 77.5139L59.3286 74.3542H52.979L58.6816 82.2083L52.7383 90.0174H58.9223L61.0438 86.6921L61.9617 85.1273L62.9096 86.7222L65.1064 90.0174H71.3205L65.8135 82.2083L71.5462 74.3692Z" fill="#100F5D"/>
<path d="M73.5625 74.3692V90.0174H79.1447V74.3692H73.5625Z" fill="#100F5D"/>
<path d="M97.5918 84.9016C97.5918 88.3773 94.5374 90.3183 89.2712 90.3183C84.5015 90.3183 81.3418 88.3472 81.3418 85.1725L87.3152 85.1123L87.5108 86.8576L92.145 86.7072L92.2654 84.39C90.1589 84.0891 86.8036 83.8183 86.8036 83.8183C83.4784 83.412 81.8383 81.5463 81.8383 78.9282C81.8383 75.7836 84.7272 73.8727 89.4819 73.8727C94.5525 73.8727 97.6219 75.6481 97.6219 79.0637L91.9946 79.0937L91.8742 77.4687L86.939 77.6493L87.0444 79.5602C87.9923 79.7257 92.5363 80.147 92.5363 80.147C95.5606 80.3877 97.5918 82.3287 97.5918 84.9016Z" fill="#100F5D"/>
<path d="M76.3465 73C78.1996 73 79.7018 71.7201 79.7018 70.1412C79.7018 68.5623 78.1996 67.2824 76.3465 67.2824C74.4934 67.2824 72.9912 68.5623 72.9912 70.1412C72.9912 71.7201 74.4934 73 76.3465 73Z" fill="#100F5D"/>
</g>
<defs>
<clipPath id="clip0_4083_4587">
<rect width="100" height="95" fill="white"/>
</clipPath>
</defs>
</svg>
